<svg width="500" height="500" viewBox="0 0 500 500" fill="none" xmlns="http://www.w3.org/2000/svg">
<path d="M62.5 250C62.5 299.728 82.2544 347.419 117.417 382.583C152.581 417.746 200.272 437.5 250 437.5C299.728 437.5 347.419 417.746 382.583 382.583C417.746 347.419 437.5 299.728 437.5 250C437.5 200.272 417.746 152.581 382.583 117.417C347.419 82.2544 299.728 62.5 250 62.5C200.272 62.5 152.581 82.2544 117.417 117.417C82.2544 152.581 62.5 200.272 62.5 250Z" fill="white"/>
<path d="M190.481 157.927C189.148 157.177 187.5 158.14 187.5 159.67L187.5 340.33C187.5 341.86 189.148 342.823 190.481 342.073L351.068 251.743C352.427 250.979 352.427 249.021 351.068 248.257L190.481 157.927Z" fill="#7E7E7E"/>
</svg>
